<?xml version="1.0" standalone="no"?><!DOCTYPE svg PUBLIC "-//W3C//DTD SVG 1.1//EN" "http://www.w3.org/Graphics/SVG/1.1/DTD/svg11.dtd"><svg t="1651455574176" class="icon" viewBox="0 0 1024 1024" version="1.1" xmlns="http://www.w3.org/2000/svg" p-id="7722" xmlns:xlink="http://www.w3.org/1999/xlink" width="200" height="200"><defs><style type="text/css"></style></defs><path d="M848.64 981.312H132.736a46.272 46.272 0 0 1-47.36-46.848V89.6c0-26.56 20.48-46.848 47.36-46.848h397.44c26.816 0 47.36 20.288 47.36 46.848v268.608h271.232c26.816 0 47.296 20.288 47.296 46.848v529.472c0 24.96-20.48 46.848-47.36 46.848zM180.032 887.68h621.44V451.84h-271.36a46.272 46.272 0 0 1-47.296-46.848V136.384H179.968v751.232z" fill="#172B4D" p-id="7723"></path><path d="M848.64 451.84a45.632 45.632 0 0 1-33.088-14.08L496.96 122.368c-18.88-18.752-18.88-48.384 0-65.6 18.944-18.752 48.896-18.752 66.24 0l318.592 313.92c18.944 18.752 18.944 48.448 0 65.6a41.856 41.856 0 0 1-33.088 15.616zM687.808 790.784h-394.24a46.272 46.272 0 0 1-47.36-46.848c0-26.56 20.48-46.848 47.36-46.848h392.704c26.752 0 47.296 20.288 47.296 46.848s-20.48 46.848-45.76 46.848zM687.808 620.544h-394.24a46.272 46.272 0 0 1-47.36-46.848c0-26.56 20.48-46.848 47.36-46.848h392.704c26.752 0 47.296 20.288 47.296 46.848s-20.48 46.848-45.76 46.848zM392.896 451.84H293.504a46.272 46.272 0 0 1-47.296-46.848c0-26.56 20.48-46.848 47.36-46.848h99.328c26.816 0 47.36 20.288 47.36 46.848s-20.544 46.848-47.36 46.848z" fill="#172B4D" p-id="7724"></path></svg>