<?xml version="1.0" standalone="no"?><!DOCTYPE svg PUBLIC "-//W3C//DTD SVG 1.1//EN" "http://www.w3.org/Graphics/SVG/1.1/DTD/svg11.dtd"><svg t="1651477061818" class="icon" viewBox="0 0 1024 1024" version="1.1" xmlns="http://www.w3.org/2000/svg" p-id="4786" xmlns:xlink="http://www.w3.org/1999/xlink" width="200" height="200"><defs><style type="text/css"></style></defs><path d="M239.744 981.376H143.36c-52.864 0-96.448-43.52-96.448-96.448V412.288c0-52.864 43.52-96.384 96.448-96.384h88.576A107.52 107.52 0 0 1 339.2 423.168v460.224c0 52.864-43.52 97.92-99.456 97.92zM143.36 407.616a3.328 3.328 0 0 0-3.136 3.136v471.04c0 1.6 1.536 3.2 3.136 3.2h96.384a6.656 6.656 0 0 0 6.208-6.272V421.632a13.952 13.952 0 0 0-14.016-14.016H143.36z" fill="#172B4D" p-id="4787"></path><path d="M710.848 981.376H382.72a136.96 136.96 0 0 1-136.832-136.832V362.56c0-7.808 1.536-15.552 6.208-23.296l152.32-268.992c6.272-12.416 18.688-20.224 32.64-23.36a44.8 44.8 0 0 1 38.912 10.88l15.552 14.08c68.416 59.008 88.64 163.2 51.328 244.032h393.344c26.432 0 46.656 20.224 46.656 46.656v111.936c0 48.192-29.568 90.176-71.552 108.8v199.04c-1.536 108.8-90.176 199.04-200.512 199.04zM339.2 373.44v469.504c0 23.36 20.224 43.52 43.52 43.52h328.128c57.472 0 105.664-46.592 105.664-105.664V546.048c0-26.432 20.224-46.72 46.72-46.72 13.952 0 24.832-10.88 24.832-24.832v-65.28H462.08a46.4 46.4 0 0 1-40.448-23.36 49.536 49.536 0 0 1 0-46.592l32.64-57.6c17.088-31.04 15.552-74.56-1.536-108.8L339.2 373.44z" fill="#172B4D" p-id="4788"></path></svg>