<?xml version="1.0" standalone="no"?><!DOCTYPE svg PUBLIC "-//W3C//DTD SVG 1.1//EN" "http://www.w3.org/Graphics/SVG/1.1/DTD/svg11.dtd"><svg t="1651477446571" class="icon" viewBox="0 0 1024 1024" version="1.1" xmlns="http://www.w3.org/2000/svg" p-id="13351" xmlns:xlink="http://www.w3.org/1999/xlink" width="200" height="200"><defs><style type="text/css"></style></defs><path d="M891.712 605.44a46.08 46.08 0 0 1-46.976-46.976V333.056H619.328a46.08 46.08 0 0 1-46.976-46.976 46.08 46.08 0 0 1 46.976-46.976h272.384a46.08 46.08 0 0 1 46.976 46.976v272.384a48.128 48.128 0 0 1-46.976 46.976z" fill="#172B4D" p-id="13352"></path><path d="M115.2 763.52a45.056 45.056 0 0 1-32.832-14.08c-18.816-18.752-18.816-48.512 0-65.728l283.328-283.328c18.816-18.816 48.512-18.816 65.728 0l137.792 137.728 266.112-264.576c18.816-18.752 48.512-18.752 65.792 0 18.752 18.816 18.752 48.576 0 65.792L603.648 638.336c-18.752 18.752-48.512 18.752-65.728 0L400.128 500.48 149.76 751.04a49.536 49.536 0 0 1-34.496 12.544z" fill="#172B4D" p-id="13353"></path></svg>