<?xml version="1.0" standalone="no"?><!DOCTYPE svg PUBLIC "-//W3C//DTD SVG 1.1//EN" "http://www.w3.org/Graphics/SVG/1.1/DTD/svg11.dtd"><svg t="1651455240361" class="icon" viewBox="0 0 1024 1024" version="1.1" xmlns="http://www.w3.org/2000/svg" p-id="4095" xmlns:xlink="http://www.w3.org/1999/xlink" width="200" height="200"><defs><style type="text/css"></style></defs><path d="M132.288 981.632a46.08 46.08 0 0 1-46.976-46.976v-134.592c0-156.544 86.144-242.688 242.688-242.688h273.92c156.544 0 242.688 86.144 242.688 242.688v134.592a46.08 46.08 0 0 1-46.976 46.976 46.08 46.08 0 0 1-46.976-46.976v-134.592c0-104.96-45.44-148.736-148.736-148.736h-273.92c-104.96 0-148.736 45.44-148.736 148.736v134.592a47.104 47.104 0 0 1-46.976 46.976zM464.192 518.272A237.824 237.824 0 0 1 226.24 280.32 237.824 237.824 0 0 1 464.192 42.368 237.824 237.824 0 0 1 702.08 280.32a237.824 237.824 0 0 1-237.952 237.952z m0-382.016a143.616 143.616 0 0 0-144 144 143.616 143.616 0 0 0 144 144.064 143.616 143.616 0 0 0 144-144 143.616 143.616 0 0 0-144-144zM908.8 502.592h-191.04a46.08 46.08 0 0 1-46.912-46.976 46.08 46.08 0 0 1 46.912-46.912h192.576a46.08 46.08 0 0 1 46.976 46.912 47.424 47.424 0 0 1-48.512 46.976z" fill="#172B4D" p-id="4096"></path><path d="M813.248 598.08a46.08 46.08 0 0 1-46.912-46.912V360.128a46.08 46.08 0 0 1 46.912-46.912 46.08 46.08 0 0 1 46.976 46.912v192.576c0 25.024-20.352 45.44-46.976 45.44z" fill="#172B4D" p-id="4097"></path></svg>