<?xml version="1.0" standalone="no"?><!DOCTYPE svg PUBLIC "-//W3C//DTD SVG 1.1//EN" "http://www.w3.org/Graphics/SVG/1.1/DTD/svg11.dtd"><svg t="1651455230837" class="icon" viewBox="0 0 1024 1024" version="1.1" xmlns="http://www.w3.org/2000/svg" p-id="3955" xmlns:xlink="http://www.w3.org/1999/xlink" width="200" height="200"><defs><style type="text/css"></style></defs><path d="M89.6 981.312a46.08 46.08 0 0 1-46.912-46.912v-134.528c0-156.48 86.016-242.496 242.496-242.496h273.728c156.48 0 242.56 86.016 242.56 242.496V934.4a46.08 46.08 0 0 1-46.976 46.912 46.08 46.08 0 0 1-46.912-46.912v-134.528c0-104.832-45.44-148.608-148.672-148.608H285.184c-104.832 0-148.672 45.312-148.672 148.608V934.4a47.04 47.04 0 0 1-46.912 46.912zM421.248 518.272a237.696 237.696 0 0 1-237.76-237.824A237.696 237.696 0 0 1 421.248 42.688a237.696 237.696 0 0 1 237.824 237.76 237.696 237.696 0 0 1-237.824 237.824z m0-381.76a143.552 143.552 0 0 0-143.936 144 143.552 143.552 0 0 0 144 143.872A143.552 143.552 0 0 0 565.12 280.448a143.552 143.552 0 0 0-143.936-143.936zM934.4 981.312a46.08 46.08 0 0 1-46.912-46.912v-134.528c0-92.288-36.032-120.448-64.192-132.992A46.848 46.848 0 1 1 864 582.4c53.184 25.024 117.312 84.48 117.312 217.472V934.4a48.128 48.128 0 0 1-46.912 46.912z" fill="#172B4D" p-id="3956"></path><path d="M671.552 504.192a47.104 47.104 0 0 1-43.776-29.76 46.72 46.72 0 0 1 26.56-60.992 142.592 142.592 0 0 0 90.752-132.992c0-59.456-35.968-111.04-90.752-132.928a48 48 0 0 1-26.56-61.056 48 48 0 0 1 60.992-26.56c90.752 35.968 148.608 121.984 148.608 220.544 0 98.56-57.856 183.04-148.608 220.608-6.272 1.536-10.88 3.136-17.216 3.136z" fill="#172B4D" p-id="3957"></path></svg>